<svg width="9" height="9" viewBox="0 0 9 9" fill="none" xmlns="http://www.w3.org/2000/svg">
<path d="M5.63269 6.43718L5.48747 5.33131C5.946 5.03218 6.38696 4.66109 6.79819 4.22818C8.11613 2.84078 8.35454 0.634023 8.1372 0.213255C8.1173 0.174915 8.08526 0.14448 8.04595 0.126572C7.61458 -0.0688795 5.42297 0.282483 4.10504 1.66989C3.69381 2.1028 3.34577 2.56229 3.07078 3.03564L1.95884 2.9473C1.89233 2.94202 1.8278 2.97182 1.78857 3.02578L0.210553 5.20056C0.165824 5.26212 0.161696 5.34427 0.20013 5.40986C0.238773 5.47566 0.311992 5.51229 0.387642 5.50363L2.5265 5.25804C2.62994 5.64228 2.90682 5.90529 3.29586 5.98887L3.16023 8.13739C3.15669 8.19498 3.17899 8.25 3.21951 8.28849C3.23243 8.30077 3.24715 8.31131 3.2635 8.31984C3.33105 8.35479 3.41275 8.34645 3.472 8.29869L5.56291 6.61113C5.61487 6.56939 5.64138 6.50334 5.63269 6.43718ZM5.48341 2.91578C5.17636 2.62411 5.1639 2.13868 5.45557 1.83163C5.74724 1.52459 6.23266 1.51212 6.53971 1.80379C6.84676 2.09546 6.85922 2.58089 6.56755 2.88794C6.27588 3.19498 5.79046 3.20745 5.48341 2.91578Z" fill="white"/>
</svg>
