<svg width="10" height="8" viewBox="0 0 10 8" fill="none" xmlns="http://www.w3.org/2000/svg">
<path d="M9.60654 2.75101C9.60808 2.77853 9.60606 2.80653 9.59914 2.83434L8.98232 5.30163C8.95121 5.42593 8.83981 5.51333 8.71174 5.514L5.0108 5.53269C5.01032 5.53269 5.00987 5.53269 5.00938 5.53269H1.30841C1.17966 5.53269 1.06748 5.44499 1.03637 5.32006L0.419551 2.84342C0.412449 2.81486 0.410393 2.78608 0.412187 2.75785C0.17357 2.68268 0 2.45939 0 2.19625C0 1.87157 0.264112 1.60746 0.588785 1.60746C0.913458 1.60746 1.17757 1.87157 1.17757 2.19625C1.17757 2.37909 1.09379 2.54268 0.962617 2.65075L1.73488 3.42884C1.93006 3.62552 2.2009 3.73826 2.47798 3.73826C2.80561 3.73826 3.11798 3.58268 3.31469 3.322L4.58385 1.64036C4.47723 1.53382 4.41121 1.3866 4.41121 1.22428C4.41121 0.89961 4.67533 0.635498 5 0.635498C5.32467 0.635498 5.58878 0.89961 5.58878 1.22428C5.58878 1.38174 5.52628 1.52466 5.42523 1.63041C5.42557 1.63086 5.42598 1.63124 5.42632 1.63172L6.68628 3.318C6.88292 3.58118 7.19641 3.7383 7.52497 3.7383C7.8046 3.7383 8.06755 3.6294 8.26527 3.43165L9.04239 2.65453C8.90845 2.54649 8.82243 2.38133 8.82243 2.19625C8.82243 1.87157 9.08654 1.60746 9.41121 1.60746C9.73589 1.60746 10 1.87157 10 2.19625C10 2.45236 9.83533 2.67019 9.60654 2.75101ZM8.92213 6.4112C8.92213 6.25636 8.7966 6.13083 8.64176 6.13083H1.38942C1.23458 6.13083 1.10905 6.25636 1.10905 6.4112V7.0841C1.10905 7.23894 1.23458 7.36447 1.38942 7.36447H8.64176C8.7966 7.36447 8.92213 7.23894 8.92213 7.0841V6.4112Z" fill="white"/>
</svg>
